<?xml version="1.0" standalone="no"?>
<!DOCTYPE svg PUBLIC "-//W3C//DTD SVG 20010904//EN"
 "http://www.w3.org/TR/2001/REC-SVG-20010904/DTD/svg10.dtd">
<svg version="1.0" xmlns="http://www.w3.org/2000/svg"
 width="512.000000pt" height="512.000000pt" viewBox="0 0 512.000000 512.000000"
 preserveAspectRatio="xMidYMid meet">
<metadata>
Created by potrace 1.14, written by Peter Selinger 2001-2017
</metadata>
<g transform="translate(0.000000,512.000000) scale(0.100000,-0.100000)"
fill="#000000" stroke="none">
<path d="M576 3258 c-3 -29 -7 -131 -8 -226 l-3 -173 35 3 35 3 7 85 c7 99 37
185 76 223 50 48 88 57 247 57 l146 0 -3 -617 c-3 -557 -5 -622 -20 -656 -18
-38 -64 -67 -108 -67 -16 0 -20 -6 -20 -35 l0 -35 245 0 245 0 0 46 0 46 -85
-7 -85 -7 0 204 c0 113 3 415 7 671 l6 467 108 0 c185 0 252 -26 301 -115 28
-53 48 -141 48 -218 l0 -47 38 0 37 0 -3 172 c-1 95 -5 197 -8 226 l-5 52
-614 0 -614 0 -5 -52z"/>
<path d="M1956 3258 c-3 -29 -7 -131 -8 -226 l-3 -173 35 3 35 3 7 85 c7 99
37 185 76 223 50 48 88 57 247 57 l146 0 -3 -617 c-3 -557 -5 -622 -20 -656
-18 -38 -64 -67 -108 -67 -16 0 -20 -6 -20 -35 l0 -35 245 0 245 0 0 46 0 46
-85 -7 -85 -7 0 204 c0 113 3 415 7 671 l6 467 108 0 c185 0 252 -26 301 -115
28 -53 48 -141 48 -218 l0 -47 38 0 37 0 -3 172 c-1 95 -5 197 -8 226 l-5 52
-614 0 -614 0 -5 -52z"/>
<path d="M3306 3258 c-3 -29 -7 -131 -8 -226 l-3 -173 35 3 35 3 7 85 c7 99
37 185 76 223 50 48 88 57 247 57 l146 0 -3 -617 c-3 -557 -5 -622 -20 -656
-18 -38 -64 -67 -108 -67 -16 0 -20 -6 -20 -35 l0 -35 245 0 245 0 0 46 0 46
-85 -7 -85 -7 0 204 c0 113 3 415 7 671 l6 467 108 0 c185 0 252 -26 301 -115
28 -53 48 -141 48 -218 l0 -47 38 0 37 0 -3 172 c-1 95 -5 197 -8 226 l-5 52
-614 0 -614 0 -5 -52z"/>
</g>
</svg>
